<?xml version="1.0" standalone="no"?>
<!DOCTYPE svg PUBLIC "-//W3C//DTD SVG 20010904//EN"
 "http://www.w3.org/TR/2001/REC-SVG-20010904/DTD/svg10.dtd">
<svg version="1.0" xmlns="http://www.w3.org/2000/svg"
 width="150.000000pt" height="150.000000pt" viewBox="0 0 150.000000 150.000000"
 preserveAspectRatio="xMidYMid meet">
<metadata>
Created by potrace 1.14, written by Peter Selinger 2001-2017
</metadata>
<g transform="translate(0.000000,150.000000) scale(0.100000,-0.100000)"
fill="#000000" stroke="none">
<path d="M0 750 l0 -750 750 0 750 0 0 750 0 750 -750 0 -750 0 0 -750z m1416
655 c4 -10 -16 -39 -56 -81 -164 -176 -351 -443 -494 -706 -44 -81 -52 -91
-109 -122 -95 -54 -91 -54 -122 6 -100 193 -177 288 -235 288 -30 0 -30 0 -16
29 9 16 29 40 46 55 66 55 156 20 245 -93 27 -34 51 -58 55 -54 4 4 44 58 90
118 288 379 566 640 596 560z m-563 -61 c79 -18 157 -49 157 -62 0 -4 -20 -28
-45 -52 l-45 -44 -64 17 c-124 33 -272 17 -380 -41 -28 -15 -79 -54 -112 -87
-169 -167 -200 -429 -73 -626 42 -65 136 -151 202 -183 196 -97 430 -57 584
100 64 65 113 153 132 234 17 74 13 191 -9 262 l-19 63 46 47 c26 27 50 48 54
48 11 0 48 -101 64 -175 30 -143 12 -276 -56 -415 -33 -66 -60 -102 -123 -165
-129 -128 -267 -185 -448 -185 -114 0 -187 17 -296 71 -153 75 -282 235 -326
405 -20 79 -21 241 -1 319 44 174 175 335 335 414 141 69 281 87 423 55z"/>
</g>
</svg>
